<svg width="550" height="832" viewBox="0 0 550 832" fill="none" xmlns="http://www.w3.org/2000/svg">
<path d="M191 445C182 469 180.5 518.5 194 527" stroke="#352B31" stroke-width="18" stroke-miterlimit="11.2824" stroke-linecap="round"/>
<path d="M161.415 384C229.003 455.168 207.6 574.36 131 649" stroke="#2D384A" stroke-width="16" stroke-miterlimit="11.2824" stroke-linecap="square"/>
<path d="M149.354 665.013L151.367 651.158L123.658 647.133L121.645 660.987L149.354 665.013ZM121.81 691.931C123.429 699.491 130.87 704.308 138.43 702.69C145.991 701.071 150.808 693.63 149.19 686.069L121.81 691.931ZM135.5 663C121.645 660.987 121.645 660.989 121.645 660.991C121.645 660.992 121.644 660.993 121.644 660.995C121.644 660.997 121.643 661 121.643 661.003C121.642 661.01 121.641 661.017 121.64 661.025C121.638 661.041 121.635 661.061 121.631 661.085C121.625 661.133 121.616 661.195 121.605 661.272C121.584 661.426 121.556 661.637 121.522 661.9C121.454 662.426 121.364 663.163 121.266 664.071C121.069 665.879 120.834 668.402 120.677 671.3C120.378 676.8 120.285 684.808 121.81 691.931L149.19 686.069C148.464 682.682 148.371 677.689 148.636 672.817C148.76 670.529 148.946 668.523 149.101 667.098C149.178 666.389 149.247 665.835 149.293 665.472C149.316 665.292 149.334 665.159 149.345 665.081C149.35 665.042 149.354 665.016 149.356 665.004C149.356 664.999 149.357 664.996 149.357 664.998C149.357 664.998 149.356 665 149.356 665.002C149.356 665.004 149.356 665.005 149.355 665.007C149.355 665.008 149.355 665.009 149.355 665.009C149.355 665.011 149.354 665.013 135.5 663Z" fill="#CA95A7"/>
<path d="M132 690C134.5 694 141.5 699.5 152 698.5" stroke="#CA95A7" stroke-width="19" stroke-miterlimit="11.2824" stroke-linecap="round"/>
<path d="M151.5 701.5C157 704.5 164 691.5 160 683" stroke="#CA95A7" stroke-width="10" stroke-miterlimit="11.2824" stroke-linecap="round"/>
<path d="M135.69 643.582C141.503 646.226 160.298 653.206 174.024 655.005M134.301 647.916C140.226 652.832 157.89 665.309 171.47 668.218M170.6 656.062C170.6 656.062 176.187 654.16 170.791 673.398M129.989 652.619C129.989 652.619 141.354 666.152 158.067 670.225" stroke="#75878D" stroke-width="21" stroke-miterlimit="11.2824" stroke-linecap="square"/>
<path d="M205 676.782C245 687.282 275 757.782 284 789.782M242 666.282C242 666.282 292.5 750.282 302.5 784.282" stroke="#20161E" stroke-width="24" stroke-miterlimit="11.2824" stroke-linecap="square"/>
<path d="M251 665.282C149 652.782 104 735.782 104 735.782" stroke="#20161E" stroke-width="42" stroke-miterlimit="11.2824" stroke-linecap="square"/>
<path d="M295.354 711.013L297.367 697.158L269.658 693.133L267.645 706.987L295.354 711.013ZM267.81 737.931C269.429 745.491 276.87 750.308 284.43 748.69C291.991 747.071 296.808 739.63 295.19 732.069L267.81 737.931ZM281.5 709C267.645 706.987 267.645 706.989 267.645 706.991C267.645 706.992 267.644 706.993 267.644 706.995C267.644 706.997 267.643 707 267.643 707.003C267.642 707.01 267.641 707.017 267.64 707.025C267.638 707.041 267.635 707.061 267.631 707.085C267.625 707.133 267.616 707.195 267.605 707.272C267.584 707.426 267.556 707.637 267.522 707.9C267.454 708.426 267.364 709.163 267.266 710.071C267.069 711.879 266.834 714.402 266.677 717.3C266.378 722.8 266.285 730.808 267.81 737.931L295.19 732.069C294.464 728.682 294.371 723.689 294.636 718.817C294.76 716.529 294.946 714.523 295.101 713.098C295.178 712.389 295.247 711.835 295.293 711.472C295.316 711.292 295.334 711.159 295.345 711.081C295.35 711.042 295.354 711.016 295.356 711.004C295.356 710.999 295.357 710.996 295.357 710.998C295.357 710.998 295.356 711 295.356 711.002C295.356 711.004 295.356 711.005 295.355 711.007C295.355 711.008 295.355 711.009 295.355 711.009C295.355 711.011 295.354 711.013 281.5 709Z" fill="#CA95A7"/>
<path d="M278 736C280.5 740 287.5 745.5 298 744.5" stroke="#CA95A7" stroke-width="19" stroke-miterlimit="11.2824" stroke-linecap="round"/>
<path d="M297.5 747.5C303 750.5 310 737.5 306 729" stroke="#CA95A7" stroke-width="10" stroke-miterlimit="11.2824" stroke-linecap="round"/>
<ellipse cx="227.532" cy="660.662" rx="81.6238" ry="23.3759" transform="rotate(10 227.532 660.662)" fill="#3A6985"/>
<path d="M237 480.5C242.5 534 224 593 207 625.5M267.5 643C271 590 261 479.5 247.5 457" stroke="#3A6985" stroke-width="86" stroke-miterlimit="11.2824" stroke-linecap="square"/>
<path d="M267.565 418C299.931 489.168 289.682 608.36 253 683" stroke="#2D384A" stroke-width="16" stroke-miterlimit="11.2824" stroke-linecap="square"/>
<path d="M276.564 407C215.59 459.502 243.103 535.818 284 571" stroke="#20161E" stroke-width="16" stroke-miterlimit="11.2824" stroke-linecap="square"/>
<path d="M280.315 389.712C274.357 386.225 266.7 388.227 263.212 394.185C259.725 400.143 261.727 407.8 267.685 411.288L280.315 389.712ZM350.463 415.635L360.098 407.672L344.172 388.402L334.537 396.365L350.463 415.635ZM351.165 397.126C345.712 392.893 337.859 393.882 333.626 399.335C329.393 404.788 330.381 412.64 335.835 416.874L351.165 397.126ZM342.366 668.496C340.707 675.197 344.795 681.975 351.496 683.634C358.197 685.293 364.975 681.205 366.634 674.504L342.366 668.496ZM310.837 661.875C307.73 668.04 310.21 675.557 316.375 678.663C322.54 681.769 330.056 679.29 333.163 673.125L310.837 661.875ZM339.217 405.667C333.786 401.405 325.929 402.352 321.667 407.783C317.404 413.214 318.352 421.071 323.783 425.333L339.217 405.667ZM326.804 668.758C325.29 675.493 329.522 682.181 336.258 683.696C342.993 685.21 349.681 680.978 351.195 674.242L326.804 668.758ZM335.835 416.874C342.048 421.698 348.168 432.188 352.753 449.491C357.221 466.353 359.736 487.783 360.316 511.987C361.475 560.358 354.869 617.996 342.366 668.496L366.634 674.504C379.631 622.004 386.525 562.142 385.309 511.388C384.701 486.029 382.06 462.491 376.919 443.087C371.894 424.124 363.951 407.052 351.165 397.126L335.835 416.874ZM267.685 411.288C275.252 415.717 283.437 419.401 290.508 421.999C294.052 423.302 297.45 424.38 300.467 425.15C303.236 425.856 306.516 426.525 309.5 426.525L309.5 401.525C309.733 401.525 308.912 401.504 306.647 400.926C304.63 400.411 302.062 399.611 299.13 398.533C293.247 396.371 286.431 393.293 280.315 389.712L267.685 411.288ZM309.5 426.525C312.783 426.525 319.646 426.241 327.012 424.962C333.828 423.78 343.53 421.365 350.463 415.635L334.537 396.365C332.97 397.66 328.921 399.257 322.737 400.331C317.104 401.308 311.717 401.525 309.5 401.525L309.5 426.525ZM299.407 421.4C306.129 430.598 312.523 446.141 317.612 466.372C322.631 486.327 326.127 509.803 327.649 534.037C330.733 583.119 325.566 632.643 310.837 661.875L333.163 673.125C350.933 637.857 355.767 582.881 352.6 532.469C350.998 506.956 347.306 481.937 341.857 460.274C336.477 438.887 329.121 419.689 319.592 406.65L299.407 421.4ZM323.783 425.333C330.1 430.291 335.908 441.217 339.785 459.314C343.551 476.889 345.026 498.964 344.689 523.264C344.015 571.803 336.153 627.181 326.804 668.758L351.195 674.242C360.847 631.319 368.984 574.197 369.686 523.611C370.037 498.348 368.543 474.205 364.23 454.077C360.03 434.47 352.65 416.209 339.217 405.667L323.783 425.333Z" fill="#20161E"/>
<path d="M360.686 683.328C365.718 681.845 368.596 676.562 367.112 671.53C365.629 666.497 360.347 663.62 355.314 665.103L360.686 683.328ZM311.529 657.649L303.178 653.12L294.12 669.822L302.471 674.351L311.529 657.649ZM355.314 665.103C346.294 667.762 335.659 666.277 326.482 663.565C322.029 662.249 318.217 660.734 315.528 659.551C314.189 658.962 313.144 658.462 312.454 658.12C312.11 657.95 311.855 657.819 311.698 657.738C311.619 657.697 311.565 657.668 311.537 657.653C311.523 657.646 311.515 657.641 311.513 657.641C311.513 657.64 311.514 657.641 311.516 657.642C311.518 657.643 311.519 657.644 311.521 657.645C311.522 657.646 311.524 657.647 311.525 657.647C311.527 657.648 311.529 657.649 307 666C302.471 674.351 302.473 674.352 302.476 674.353C302.477 674.354 302.479 674.355 302.481 674.356C302.485 674.358 302.489 674.361 302.494 674.363C302.503 674.368 302.514 674.374 302.527 674.381C302.552 674.395 302.585 674.412 302.624 674.433C302.702 674.474 302.806 674.529 302.937 674.597C303.198 674.733 303.563 674.919 304.023 675.147C304.943 675.603 306.249 676.226 307.877 676.942C311.121 678.369 315.703 680.192 321.097 681.786C331.613 684.893 346.478 687.516 360.686 683.328L355.314 665.103Z" fill="#483B42"/>
<path d="M369.957 660.264L366.274 677.683L353.108 666.017L369.957 660.264Z" fill="#483B42"/>
<path d="M289.301 423C327.664 489.418 322.507 646.367 293.48 689.291" stroke="#3A6985" stroke-width="32" stroke-miterlimit="11.2824" stroke-linecap="round"/>
<path d="M274.301 425C312.664 491.418 307.507 648.367 278.48 691.291" stroke="#3A6985" stroke-width="32" stroke-miterlimit="11.2824" stroke-linecap="square"/>
<path d="M191 439.5C210.5 433.5 230 422.5 230 422.5C230 422.5 252.5 407.5 258 396" stroke="#313B44" stroke-width="9" stroke-miterlimit="11.2824" stroke-linecap="round"/>
<ellipse cx="197.086" cy="316.415" rx="96.4343" ry="138.332" transform="rotate(32 197.086 316.415)" fill="#CE93A7"/>
<path d="M144.5 381C144.5 381 150 386 154 386C158 386 163.5 384.5 163.5 384.5" stroke="black" stroke-width="7" stroke-miterlimit="11.2824" stroke-linecap="round"/>
<ellipse cx="140" cy="302" rx="15" ry="17" fill="#FAFEFE"/>
<ellipse cx="140" cy="302" rx="5" ry="10" fill="black"/>
<ellipse cx="140" cy="302" rx="5" ry="10" fill="black"/>
<ellipse cx="140" cy="302" rx="5" ry="10" fill="black"/>
<ellipse cx="222" cy="318" rx="15" ry="17" fill="#FAFFFF"/>
<ellipse cx="221.852" cy="318.398" rx="5" ry="10" fill="black"/>
<ellipse cx="221.852" cy="318.398" rx="5" ry="10" fill="black"/>
<ellipse cx="221.852" cy="318.398" rx="5" ry="10" fill="black"/>
<ellipse cx="108.988" cy="334.849" rx="8.85655" ry="14.5" transform="rotate(24 108.988 334.849)" fill="#966674"/>
<ellipse cx="245" cy="358" rx="14" ry="18" fill="#966674"/>
<path d="M117.5 349.5C145.5 377 201 373 225 368.5" stroke="black" stroke-width="2" stroke-miterlimit="11.2824" stroke-linecap="round"/>
<ellipse cx="183.876" cy="335.032" rx="3" ry="4" transform="rotate(7 183.876 335.032)" fill="#452B32"/>
<path d="M164.025 332.595C164.142 331.639 164.526 330.73 165.144 329.946C165.762 329.161 166.596 328.522 167.576 328.085C168.555 327.648 169.652 327.424 170.772 327.432C171.893 327.44 173.005 327.681 174.014 328.134C175.023 328.586 175.9 329.237 176.571 330.032C177.242 330.826 177.686 331.741 177.867 332.699C178.048 333.657 177.96 334.63 177.611 335.535C177.262 336.441 176.661 337.252 175.86 337.901L171.676 334.089C171.791 333.995 171.878 333.879 171.928 333.748C171.978 333.618 171.991 333.478 171.965 333.34C171.939 333.202 171.875 333.071 171.778 332.956C171.682 332.842 171.556 332.748 171.41 332.683C171.265 332.618 171.105 332.583 170.944 332.582C170.782 332.581 170.625 332.613 170.484 332.676C170.343 332.739 170.223 332.831 170.134 332.944C170.045 333.057 169.989 333.187 169.973 333.325L164.025 332.595Z" fill="#452B32"/>
<path d="M174.113 337.719C173.486 336.899 173.092 335.968 172.965 335.006C172.837 334.043 172.979 333.077 173.379 332.189C173.779 331.301 174.426 330.516 175.263 329.902C176.101 329.288 177.106 328.863 178.193 328.661C179.279 328.46 180.416 328.488 181.508 328.745C182.599 329.001 183.612 329.478 184.462 330.134C185.312 330.791 185.973 331.608 186.39 332.517C186.807 333.426 186.968 334.4 186.858 335.356L180.908 334.662C180.923 334.524 180.9 334.383 180.84 334.252C180.78 334.121 180.685 334.004 180.562 333.909C180.44 333.814 180.294 333.746 180.136 333.709C179.979 333.672 179.815 333.668 179.659 333.697C179.502 333.726 179.357 333.787 179.236 333.875C179.116 333.964 179.022 334.077 178.965 334.205C178.907 334.333 178.887 334.472 178.905 334.611C178.923 334.75 178.98 334.884 179.071 335.002L174.113 337.719Z" fill="#452B32"/>
<ellipse cx="175.256" cy="335.485" rx="4.5" ry="2.5" transform="rotate(7 175.256 335.485)" fill="#452B32"/>
<ellipse cx="167.002" cy="332.96" rx="3" ry="4" transform="rotate(7 167.002 332.96)" fill="#452B32"/>
<ellipse cx="175.552" cy="328.973" rx="7" ry="2" transform="rotate(7 175.552 328.973)" fill="#452B32"/>
<path d="M269.69 682.582C275.503 685.226 294.298 692.206 308.024 694.005M268.301 686.916C274.226 691.832 291.89 704.309 305.47 707.218M304.6 695.062C304.6 695.062 310.187 693.16 304.791 712.398M263.989 691.619C263.989 691.619 275.354 705.152 292.067 709.225" stroke="#75878D" stroke-width="21" stroke-miterlimit="11.2824" stroke-linecap="square"/>
<path d="M277.5 405C277.5 405 268.5 410.5 258.5 426.5" stroke="#20161E" stroke-width="16" stroke-miterlimit="11.2824" stroke-linecap="square"/>
<ellipse cx="276.619" cy="791.505" rx="41.9583" ry="13.0584" transform="rotate(6 276.619 791.505)" fill="#20161E"/>
<ellipse cx="83.9048" cy="736.905" rx="39.5493" ry="12.6421" transform="rotate(45 83.9048 736.905)" fill="#20161E"/>
<path d="M288.278 337.977C290.821 339.479 293.679 340.441 296.653 340.795C299.628 341.149 302.648 340.887 305.505 340.028C308.362 339.169 310.988 337.732 313.2 335.818C315.413 333.903 317.16 331.557 318.321 328.94C319.481 326.324 320.028 323.5 319.922 320.664C319.816 317.828 319.06 315.048 317.708 312.516C316.355 309.984 314.437 307.76 312.087 305.998C309.737 304.236 307.011 302.978 304.097 302.312L299.236 321.356L288.278 337.977Z" fill="#CE93A7"/>
<path d="M309.18 322.353C310.348 323.788 310.93 325.502 310.838 327.237C310.746 328.973 309.986 330.637 308.671 331.98C307.356 333.323 305.557 334.273 303.544 334.688C301.531 335.102 299.411 334.959 297.503 334.279L301.256 326.882L309.18 322.353Z" fill="black"/>
<g clip-path="url(#clip0_4_241)">
<path d="M127 237.5C127 222.5 154.5 194.5 177.5 193.5L174.5 197.5L171 201.5L172 197L163 201L159 203.5L155.5 205.5L149 210.5L142 216L137.5 222.5L134.5 227L127 237.5Z" stroke="black" stroke-width="4" stroke-miterlimit="11.2824" stroke-linecap="round"/>
<path d="M161.5 207.5L145 220L140 227C140 227 137.35 234.5 137 235C136.65 235.5 136 237 136 237.5C136 238 135.5 239.5 135.5 239.5V241V244.5L145.5 236L143 233.5L146 228.5L151 223L159.5 217.5L165 212.5L169.5 203L167.5 204.5L161.5 207.5Z" stroke="black" stroke-width="7" stroke-miterlimit="11.2824" stroke-linecap="round"/>
<ellipse cx="236.043" cy="240.446" rx="72" ry="55.5" transform="rotate(26 236.043 240.446)" fill="black"/>
<path d="M170 210L149.5 233M168.5 218.5L153.5 233.5" stroke="black" stroke-width="7" stroke-miterlimit="11.2824" stroke-linecap="round"/>
<path d="M156.5 236.5C156.5 256 173 269 173 269C173 269 158 247 164.5 232" stroke="black" stroke-width="7" stroke-miterlimit="11.2824" stroke-linecap="round"/>
<path d="M158 235.5L168 225.5" stroke="black" stroke-width="7" stroke-miterlimit="11.2824" stroke-linecap="round"/>
<path d="M165 232.5C165 242 184.5 263 184.5 263" stroke="black" stroke-width="7" stroke-miterlimit="11.2824" stroke-linecap="round"/>
<path d="M239.5 188C285 191 321.5 232 321.5 240.5" stroke="black" stroke-width="5" stroke-miterlimit="11.2824" stroke-linecap="square"/>
<path d="M264.5 200C282 197 319.5 242.5 321 242" stroke="black" stroke-width="5" stroke-miterlimit="11.2824" stroke-linecap="square"/>
<path d="M264 196C292.5 206.5 300 220.5 319.5 239.5" stroke="black" stroke-width="5" stroke-miterlimit="11.2824" stroke-linecap="square"/>
<path d="M293.5 220.5C315 237.5 319 268 317 293.5M289 227.5C306.5 228.5 311.5 259.5 316 271" stroke="black" stroke-width="5" stroke-miterlimit="11.2824" stroke-linecap="square"/>
<path d="M296.5 239C307.5 241 315.5 272.5 317 275.5" stroke="black" stroke-width="5" stroke-miterlimit="11.2824" stroke-linecap="square"/>
<path d="M209 275.5C229 307.5 267.5 300.5 296.5 306.5" stroke="black" stroke-width="15" stroke-miterlimit="11.2824" stroke-linecap="square"/>
<path d="M298 253.5C303 276 292.5 305 292.5 305L287.5 280" stroke="black" stroke-width="24" stroke-miterlimit="11.2824" stroke-linecap="square"/>
<path d="M266 287.5L278.5 294.5" stroke="black" stroke-width="24" stroke-miterlimit="11.2824" stroke-linecap="square"/>
<path d="M317 239C317.5 241 318 240.5 319 241.5C320 242.5 324 245.5 324 245.5L323 240.5L321.5 237" stroke="black" stroke-width="3" stroke-miterlimit="11.2824" stroke-linecap="square"/>
<path d="M297 224C322 239.5 322.5 280.5 317.5 293.5" stroke="black" stroke-width="2" stroke-miterlimit="11.2824" stroke-linecap="square"/>
<path d="M302.5 258C312 265 317.5 279.5 315 295" stroke="black" stroke-width="2" stroke-miterlimit="11.2824" stroke-linecap="square"/>
<path d="M315.5 289L314.5 299.5C314.5 299.5 319.5 297.5 318 294M317 293.5L315.5 298" stroke="black" stroke-width="2" stroke-miterlimit="11.2824" stroke-linecap="square"/>
<path d="M193 260C218 299.5 266.5 301.5 266.5 301.5M193 259.5C223 288.435 248 297 266.5 301M197.5 265C206.5 278 234 294.5 254 298.5M201.5 268.5C206 273.5 230 288.5 230 288.5" stroke="#575757" stroke-width="2" stroke-miterlimit="11.2824" stroke-linecap="square"/>
<path d="M167.5 244.5C178 267 213.5 307.5 270.5 308.5" stroke="black" stroke-width="3" stroke-miterlimit="11.2824" stroke-linecap="square"/>
</g>
<defs>
<clipPath id="clip0_4_241">
<rect width="220" height="183" fill="white" transform="translate(115 169)"/>
</clipPath>
</defs>
</svg>
